<svg width="65" height="35" viewBox="0 0 65 35" fill="none" xmlns="http://www.w3.org/2000/svg">
<g clip-path="url(#clip0_27_20)">
<path d="M24.1231 10.7691H27.3541C28.0312 10.7691 28.4375 11.3075 28.4375 11.846V33.9229C28.4375 34.46 27.8958 34.9999 27.3541 34.9999H24.1258C23.5841 34.9999 23.0425 34.4614 23.0425 33.9229V11.846C22.907 11.1729 23.446 10.7691 24.1231 10.7691ZM19.2291 1.34601H14.7604C14.0833 1.34601 13.5416 1.88851 13.5416 2.43235V9.42293H2.97913C2.16663 9.42293 1.35413 10.2374 1.35413 11.0518V33.371C1.35413 34.1868 2.16663 34.9999 2.97913 34.9999H19.2291C19.7708 34.9999 20.3125 34.5893 20.3125 33.9108V2.43235C20.3125 1.88851 19.9062 1.34601 19.2291 1.34601ZM13.5416 28.65C13.5416 29.1858 13 29.727 12.4583 29.727H9.20829C8.66663 29.727 8.12496 29.1899 8.12496 28.65V15.8845C8.12496 15.346 8.53121 14.8075 9.20829 14.8075H12.4583C13.1354 14.8075 13.5416 15.346 13.5416 15.8845V28.65ZM44.9583 20.1922C45.6354 20.1922 46.0416 20.9999 46.0416 21.2691V33.9229C46.0416 34.46 45.4702 34.9999 44.9583 34.9999H32.2291C31.6536 34.9999 31.1458 34.4614 31.1458 33.9229V30.711C31.1458 30.0379 31.6875 29.6354 32.2291 29.6354L40.625 29.6152V25.5768H32.2291C31.7809 25.5768 31.1458 25.0383 31.1458 24.4985V11.846C31.1458 11.1729 31.6875 10.7691 32.2291 10.7691H44.9583C45.4986 10.7691 46.0416 11.3075 46.0416 11.846V15.0768C46.0416 15.4806 45.6814 16.1537 44.9583 16.1537H36.5625V20.1922H44.9583ZM65 24.2306V33.9229C65 34.46 64.4583 34.9999 63.9153 34.9999H49.8333C49.5625 34.9999 48.75 34.4614 48.75 33.9229V11.846C48.75 11.1729 49.335 10.7691 49.8753 10.7691H63.9166C63.9166 10.7691 65 10.7691 65 11.846V20.1922H59.5833V17.2306C59.5833 17.2306 59.7187 16.1537 58.5 16.1537H55.25C54.5729 16.1537 54.1666 16.6922 54.1666 17.2306V28.5383C54.1666 29.0754 54.8437 29.6152 55.25 29.6152H58.5C59.0403 29.6152 59.5833 29.0768 59.5833 28.5383V24.2306H65Z" fill="black"/>
<path d="M62.0195 8.04984H63.5104V3.87811H65V2.66522H60.6653V3.87811H62.0195V8.04984ZM59.6023 6.02522H58.0545V6.15311C58.0545 6.66734 57.9245 6.92445 57.2799 6.92445C56.6367 6.92445 56.508 6.66734 56.508 5.89868V4.99945C56.508 4.22945 56.508 3.97368 57.2799 3.97368C57.7958 3.97368 58.0545 4.10157 58.0545 4.6158V4.74368H59.4723V4.6158C59.4723 3.20638 58.9564 2.69215 57.4099 2.69215H57.0213C55.4761 2.69215 54.9589 3.20638 54.9589 4.87022V5.89868C54.9589 7.43599 55.4748 8.07676 57.0213 8.07676H57.5399C58.9577 8.07676 59.4736 7.43465 59.4736 6.15176V6.02388L59.6023 6.02522ZM39.9696 2.69215L38.8876 6.59599L37.6675 2.69215H35.5022V8.07676H36.9904V4.0383L38.0724 8.07676H39.5647L40.7807 4.17292V8.07676H42.1349V2.69215H39.9696ZM52.4239 2.69215H49.9891L48.3654 8.07676H49.9891L50.2585 7.13445H52.1557L52.4252 8.07676H54.0489L52.4239 2.69215ZM51.3419 6.05753H50.8002L51.3419 3.76907L51.8808 6.05753H51.3419ZM45.9333 2.69215H43.3604V8.07676H44.8527V6.59599H45.9347C47.427 6.59599 47.9659 6.05753 47.9659 4.71138V4.30753C47.9646 3.09599 47.4229 2.69215 45.9333 2.69215ZM46.475 4.84599C46.475 5.38445 46.3396 5.51907 45.9333 5.51907H44.8514V3.90368H45.7993C46.3409 3.90368 46.4764 4.0383 46.4764 4.44215L46.475 4.84599ZM31.9502 2.69215H31.1756C29.6278 2.69215 29.1132 3.20638 29.1132 4.87022V5.89599C29.1132 7.43599 29.6292 8.07676 31.1756 8.07676H31.9502C33.498 8.07676 34.0126 7.43465 34.0126 5.89599V4.87022C34.0126 3.20638 33.498 2.69215 31.9502 2.69215ZM32.4661 5.64022C32.4661 6.40888 32.4661 6.66734 31.6929 6.66734H31.4356C30.6624 6.66734 30.6624 6.41022 30.6624 5.64022V4.87022C30.6624 4.10292 30.6624 3.84445 31.4356 3.84445H31.6929C32.4661 3.84445 32.4661 4.10157 32.4661 4.87022V5.64022ZM27.6548 6.02657H26.1056V6.15445C26.1056 6.66868 25.977 6.92311 25.3324 6.92311C24.6878 6.92311 24.5592 6.66868 24.5592 5.89734V5.0008C24.5592 4.22945 24.5592 3.97503 25.3324 3.97503C25.8483 3.97503 26.1056 4.10292 26.1056 4.61445V4.74368H27.5248V4.61445C27.5248 3.20503 27.0089 2.69215 25.4624 2.69215H25.0751C23.5273 2.69215 23.0114 3.20503 23.0114 4.87022V5.89734C23.0114 7.43599 23.5273 8.07676 25.0751 8.07676H25.591C27.0102 8.07676 27.5261 7.43465 27.5261 6.15311V6.02522H27.6548V6.02657Z" fill="black"/>
</g>
<defs>
<clipPath id="clip0_27_20">
<rect width="65" height="35" fill="white"/>
</clipPath>
</defs>
</svg>
