<svg width="93" height="35" viewBox="0 0 93 35" fill="none" xmlns="http://www.w3.org/2000/svg">
<path d="M60.0686 35L74.1857 0H64.8275L55.1715 22.6169L48.3037 0H41.1089L33.7379 22.6169L28.5376 12.312L23.8331 26.7969L28.6102 35H37.8194L44.482 14.7164L50.8394 35H60.0686ZM8.86225 22.9852H14.6112C16.1819 23.0073 17.7481 22.8103 19.2648 22.4L20.7506 17.8081L24.9066 4.97656C24.5857 4.47017 24.221 3.99314 23.8167 3.55104C21.6879 1.18368 18.5679 0 14.4568 0H0V35H8.86225V22.9852ZM16.473 8.05182C17.3073 8.89279 17.7239 10.0181 17.7227 11.4279C17.7215 12.8376 17.3582 13.9635 16.6328 14.8057C15.8288 15.7318 14.349 16.1942 12.1935 16.193H8.86225V6.79036H12.2081C14.217 6.79036 15.6387 7.21085 16.473 8.05182ZM68.4513 28.731L71.1377 21.9406H78.892L75.2119 11.6393L79.8147 0L93 35H83.2768L81.0244 28.731H68.4513Z" fill="black"/>
</svg>
