<svg width="96" height="35" viewBox="0 0 96 35" fill="none" xmlns="http://www.w3.org/2000/svg">
<path fill-rule="evenodd" clip-rule="evenodd" d="M0 8.75V0H30.5455V8.75H19.6364V35H10.9091V8.75H0ZM63.2727 0V35H80.7273C84.7779 35 88.6625 33.3867 91.5267 30.5151C94.3909 27.6434 96 23.7486 96 19.6875V15.3125C96 11.2514 94.3909 7.35658 91.5267 4.48493C88.6625 1.61328 84.7779 0 80.7273 0H63.2727ZM72 8.75V26.25H78.5455C80.2814 26.25 81.9463 25.5586 83.1738 24.3279C84.4013 23.0972 85.0909 21.428 85.0909 19.6875V15.3125C85.0909 13.572 84.4013 11.9028 83.1738 10.6721C81.9463 9.4414 80.2814 8.75 78.5455 8.75H72ZM32.7273 0V35H61.0909V26.25H41.4545V21.875H61.0909V13.125H41.4545V8.75H61.0909V0H32.7273Z" fill="black"/>
</svg>
