<svg width="54" height="50" viewBox="0 0 54 50" fill="none" xmlns="http://www.w3.org/2000/svg">
<path d="M26.7056 45C26.8692 45 27.0327 44.9583 27.1963 44.875C27.3598 44.7917 27.4825 44.7083 27.5643 44.625L47.6824 24.125C48.1731 23.625 48.5309 23.0625 48.7558 22.4375C48.9807 21.8125 49.0931 21.1875 49.0931 20.5625C49.0931 19.8958 48.9807 19.2604 48.7558 18.6562C48.5309 18.0521 48.1731 17.5208 47.6824 17.0625L37.2553 6.4375C36.8055 5.9375 36.2842 5.57292 35.6913 5.34375C35.0984 5.11458 34.4748 5 33.8205 5C33.2072 5 32.5938 5.11458 31.9805 5.34375C31.3671 5.57292 30.8151 5.9375 30.3244 6.4375L29.6497 7.125L34.1886 11.8125C34.8019 12.3958 35.2517 13.0625 35.5379 13.8125C35.8242 14.5625 35.9673 15.3542 35.9673 16.1875C35.9673 17.9375 35.3846 19.4062 34.2192 20.5938C33.0538 21.7812 31.6124 22.375 29.8951 22.375C29.0772 22.375 28.2901 22.2292 27.5336 21.9375C26.7771 21.6458 26.1127 21.2083 25.5402 20.625L20.94 16L10.2063 26.9375C10.0836 27.0625 9.9916 27.1979 9.93026 27.3438C9.86892 27.4896 9.83826 27.6458 9.83826 27.8125C9.83826 28.1458 9.96093 28.4479 10.2063 28.7188C10.4516 28.9896 10.7378 29.125 11.065 29.125C11.2285 29.125 11.3921 29.0833 11.5557 29C11.7192 28.9167 11.8419 28.8333 11.9237 28.75L20.2653 20.25L23.7001 23.75L15.4198 32.25C15.2971 32.375 15.2051 32.5104 15.1438 32.6562C15.0825 32.8021 15.0518 32.9583 15.0518 33.125C15.0518 33.4583 15.1745 33.75 15.4198 34C15.6652 34.25 15.9514 34.375 16.2785 34.375C16.4421 34.375 16.6056 34.3333 16.7692 34.25C16.9328 34.1667 17.0554 34.0833 17.1372 34L25.4789 25.5625L28.9137 29.0625L20.6333 37.5625C20.5107 37.6458 20.4187 37.7708 20.3573 37.9375C20.296 38.1042 20.2653 38.2708 20.2653 38.4375C20.2653 38.7708 20.388 39.0625 20.6333 39.3125C20.8787 39.5625 21.1649 39.6875 21.4921 39.6875C21.6556 39.6875 21.809 39.6562 21.9521 39.5938C22.0952 39.5312 22.2281 39.4375 22.3507 39.3125L30.6924 30.875L34.1272 34.375L25.7856 42.875C25.6629 43 25.5709 43.1354 25.5095 43.2812C25.4482 43.4271 25.4175 43.5833 25.4175 43.75C25.4175 44.0833 25.5504 44.375 25.8162 44.625C26.082 44.875 26.3785 45 26.7056 45ZM26.6443 50C25.1313 50 23.7921 49.4896 22.6268 48.4687C21.4614 47.4479 20.7765 46.1667 20.572 44.625C19.1817 44.4167 18.0164 43.8333 17.0759 42.875C16.1354 41.9167 15.5629 40.7292 15.3585 39.3125C13.9682 39.1042 12.813 38.5104 11.893 37.5312C10.973 36.5521 10.4107 35.375 10.2063 34C8.65243 33.7917 7.38483 33.1042 6.40345 31.9375C5.42208 30.7708 4.9314 29.3958 4.9314 27.8125C4.9314 26.9792 5.08473 26.1771 5.39141 25.4062C5.69809 24.6354 6.13766 23.9583 6.71013 23.375L20.94 8.9375L28.975 17.125C29.0568 17.25 29.1795 17.3438 29.343 17.4062C29.5066 17.4688 29.6702 17.5 29.8337 17.5C30.2017 17.5 30.5084 17.3854 30.7537 17.1562C30.9991 16.9271 31.1218 16.625 31.1218 16.25C31.1218 16.0833 31.0911 15.9167 31.0298 15.75C30.9684 15.5833 30.8764 15.4583 30.7537 15.375L21.9827 6.4375C21.5329 5.9375 21.0116 5.57292 20.4187 5.34375C19.8258 5.11458 19.2022 5 18.5479 5C17.9346 5 17.3212 5.11458 16.7079 5.34375C16.0945 5.57292 15.5425 5.9375 15.0518 6.4375L6.40345 15.3125C6.03544 15.6875 5.72876 16.125 5.48342 16.625C5.23807 17.125 5.07451 17.625 4.99273 18.125C4.91095 18.625 4.91095 19.1354 4.99273 19.6562C5.07451 20.1771 5.23807 20.6667 5.48342 21.125L1.92594 24.75C1.2308 23.7917 0.719673 22.7396 0.392549 21.5938C0.0654248 20.4479 -0.0572467 19.2917 0.0245343 18.125C0.106315 16.9583 0.392549 15.8229 0.883235 14.7188C1.37392 13.6146 2.04861 12.625 2.90732 11.75L11.5557 2.9375C12.537 1.97917 13.6308 1.25 14.8371 0.75C16.0434 0.25 17.2803 0 18.5479 0C19.8155 0 21.0525 0.25 22.2587 0.75C23.465 1.25 24.5384 1.97917 25.4789 2.9375L26.1536 3.625L26.8283 2.9375C27.8096 1.97917 28.9035 1.25 30.1097 0.75C31.316 0.25 32.5529 0 33.8205 0C35.0881 0 36.3251 0.25 37.5314 0.75C38.7376 1.25 39.811 1.97917 40.7515 2.9375L51.1172 13.5C52.0577 14.4583 52.7733 15.5625 53.264 16.8125C53.7547 18.0625 54 19.3333 54 20.625C54 21.9167 53.7547 23.1771 53.264 24.4062C52.7733 25.6354 52.0577 26.7292 51.1172 27.6875L30.9991 48.125C30.4266 48.7083 29.7622 49.1667 29.0057 49.5C28.2492 49.8333 27.4621 50 26.6443 50Z" fill="#0F1C2C"/>
</svg>
