<svg width="28" height="28" viewBox="0 0 28 28" fill="none" xmlns="http://www.w3.org/2000/svg">
<mask id="path-1-outside-1_88_2109" maskUnits="userSpaceOnUse" x="-0.545532" y="2.00024" width="29" height="24" fill="black">
<rect fill="white" x="-0.545532" y="2.00024" width="29" height="24"/>
<path fill-rule="evenodd" clip-rule="evenodd" d="M26.7249 22.3586C26.7249 22.445 26.6515 22.5185 26.5649 22.5185H12.3245C12.2372 22.5185 12.1641 22.445 12.1641 22.3586V20.0748C12.1641 19.9877 12.2372 19.915 12.3245 19.915H26.5649C26.6515 19.915 26.7249 19.9877 26.7249 20.0748V22.3586ZM5.97359 19.569V18.4033H7.18779C7.88907 18.4033 8.45997 17.8326 8.45997 17.1309V12.5933C8.45997 12.1336 8.22195 11.7214 7.82356 11.4916L6.60376 10.7872V9.20881L8.57355 10.3461C9.37032 10.8059 9.82662 11.5972 9.82662 12.5166V19.6769C9.82662 20.3785 10.3975 20.9494 11.0991 20.9494H11.3431V21.859H8.26306C8.08527 20.6812 7.15156 19.7475 5.97359 19.569ZM5.56336 24.1789C6.61624 24.1789 7.47324 23.3224 7.47324 22.2694C7.47324 21.2158 6.61624 20.3594 5.56336 20.3594C4.51016 20.3594 3.65316 21.2158 3.65316 22.2694C3.6531 23.3224 4.5101 24.1789 5.56336 24.1789ZM1.93517 6.47829C1.88864 6.45155 1.85455 6.40752 1.84032 6.35577L1.28261 4.27434C1.2758 4.24858 1.27416 4.22173 1.27777 4.19534C1.28138 4.16894 1.29018 4.14352 1.30365 4.12054C1.3168 4.09746 1.33439 4.07721 1.35541 4.06096C1.37643 4.04472 1.40045 4.03279 1.42611 4.02588L2.16226 3.82833C2.17905 3.82396 2.19617 3.82177 2.21297 3.82177C2.30254 3.82177 2.38677 3.88245 2.41084 3.97177L2.96855 6.05314C2.99687 6.15925 2.93136 6.27308 2.82531 6.30159L2.08845 6.49914C2.01915 6.51767 1.96284 6.49361 1.93517 6.47829ZM13.6896 13.8378C13.6896 13.6254 13.8618 13.4524 14.0741 13.4524H14.9901V14.5251C14.9901 15.067 15.4302 15.5076 15.9721 15.5076H16.7511C17.2927 15.5076 17.7335 15.067 17.7335 14.5251V13.4524H19.0343V19.094H13.6896V13.8378ZM15.8108 13.4524V14.5251C15.8108 14.6127 15.8846 14.6867 15.9721 14.6867H16.7511C16.8387 14.6867 16.9124 14.6127 16.9124 14.5251V13.4524H15.8108ZM16.7725 7.6719C16.7725 7.45955 16.9447 7.28671 17.1577 7.28671H18.0727V8.35928C18.0727 8.9011 18.5139 9.34169 19.0551 9.34169H19.8344C20.3757 9.34169 20.8162 8.9011 20.8162 8.35928V7.28671H21.7322C21.9445 7.28671 22.1174 7.45955 22.1174 7.6719V12.6315H16.7725V7.6719ZM18.8938 7.28671V8.35928C18.8938 8.44686 18.9675 8.52079 19.0551 8.52079H19.8344C19.9214 8.52079 19.9954 8.44686 19.9954 8.35928V7.28671H18.8938ZM21.9768 13.4524H23.0784V14.5251C23.0784 14.6127 23.0047 14.6867 22.9174 14.6867H22.1381C22.0506 14.6867 21.9768 14.6127 21.9768 14.5251L21.9768 13.4524ZM25.2003 13.8378C25.2003 13.6254 25.0271 13.4524 24.8147 13.4524H23.8994V14.5251C23.8994 15.067 23.4586 15.5076 22.9173 15.5076H22.1381C21.5968 15.5076 21.1557 15.067 21.1557 14.5251V13.4524H19.8552V19.094H25.2003L25.2003 13.8378ZM26.565 19.094H26.0211V13.8378C26.0211 13.1728 25.4798 12.6315 24.8148 12.6315H22.9381V7.6719C22.9381 7.00698 22.3969 6.46574 21.7322 6.46574H17.1577C16.492 6.46574 15.9514 7.00705 15.9514 7.6719V12.6315H14.0741C13.4094 12.6315 12.8685 13.1728 12.8685 13.8378V19.094H12.3246C11.784 19.094 11.3431 19.534 11.3431 20.0748V20.1284H11.0992C10.8506 20.1284 10.6478 19.9258 10.6478 19.6769V12.5165C10.6478 11.2956 10.0414 10.2453 8.98384 9.63506L6.39836 8.14204C6.33594 8.10602 6.26515 8.08706 6.19308 8.08706C6.12102 8.08706 6.05023 8.10602 5.98781 8.14204C5.92545 8.17816 5.87368 8.23003 5.83769 8.29247C5.8017 8.3549 5.78274 8.42569 5.78273 8.49776V11.0242C5.78278 11.0962 5.80175 11.1669 5.83774 11.2292C5.87374 11.2916 5.92549 11.3433 5.98781 11.3794L7.41308 12.2025C7.56089 12.2872 7.63927 12.423 7.63927 12.5932V17.1308C7.63927 17.3798 7.43682 17.5824 7.18792 17.5824H5.87855L3.06546 7.08587C3.5939 6.9277 3.90502 6.37662 3.76178 5.84066L3.20407 3.75929C3.05787 3.21425 2.49552 2.88909 1.94997 3.03523L1.21382 3.23291C0.950115 3.30357 0.729527 3.47319 0.592528 3.71006C0.455593 3.94764 0.419043 4.2235 0.489505 4.48675L1.04754 6.56812C1.118 6.83137 1.28756 7.05196 1.52495 7.18928C1.68002 7.27946 1.85617 7.32703 2.03556 7.32718C2.1149 7.32718 2.19424 7.3174 2.27262 7.29874L5.15275 18.0472V19.5691C3.84106 19.7679 2.83233 20.903 2.83233 22.2695C2.83233 23.7751 4.0574 24.9999 5.56336 24.9999C6.92969 24.9999 8.06487 23.9913 8.26306 22.68H11.3984C11.5321 23.0631 11.8959 23.3395 12.3245 23.3395H26.565C27.1059 23.3395 27.5458 22.8994 27.5458 22.3587V20.0749C27.5458 19.534 27.1059 19.094 26.565 19.094Z"/>
</mask>
<path fill-rule="evenodd" clip-rule="evenodd" d="M26.7249 22.3586C26.7249 22.445 26.6515 22.5185 26.5649 22.5185H12.3245C12.2372 22.5185 12.1641 22.445 12.1641 22.3586V20.0748C12.1641 19.9877 12.2372 19.915 12.3245 19.915H26.5649C26.6515 19.915 26.7249 19.9877 26.7249 20.0748V22.3586ZM5.97359 19.569V18.4033H7.18779C7.88907 18.4033 8.45997 17.8326 8.45997 17.1309V12.5933C8.45997 12.1336 8.22195 11.7214 7.82356 11.4916L6.60376 10.7872V9.20881L8.57355 10.3461C9.37032 10.8059 9.82662 11.5972 9.82662 12.5166V19.6769C9.82662 20.3785 10.3975 20.9494 11.0991 20.9494H11.3431V21.859H8.26306C8.08527 20.6812 7.15156 19.7475 5.97359 19.569ZM5.56336 24.1789C6.61624 24.1789 7.47324 23.3224 7.47324 22.2694C7.47324 21.2158 6.61624 20.3594 5.56336 20.3594C4.51016 20.3594 3.65316 21.2158 3.65316 22.2694C3.6531 23.3224 4.5101 24.1789 5.56336 24.1789ZM1.93517 6.47829C1.88864 6.45155 1.85455 6.40752 1.84032 6.35577L1.28261 4.27434C1.2758 4.24858 1.27416 4.22173 1.27777 4.19534C1.28138 4.16894 1.29018 4.14352 1.30365 4.12054C1.3168 4.09746 1.33439 4.07721 1.35541 4.06096C1.37643 4.04472 1.40045 4.03279 1.42611 4.02588L2.16226 3.82833C2.17905 3.82396 2.19617 3.82177 2.21297 3.82177C2.30254 3.82177 2.38677 3.88245 2.41084 3.97177L2.96855 6.05314C2.99687 6.15925 2.93136 6.27308 2.82531 6.30159L2.08845 6.49914C2.01915 6.51767 1.96284 6.49361 1.93517 6.47829ZM13.6896 13.8378C13.6896 13.6254 13.8618 13.4524 14.0741 13.4524H14.9901V14.5251C14.9901 15.067 15.4302 15.5076 15.9721 15.5076H16.7511C17.2927 15.5076 17.7335 15.067 17.7335 14.5251V13.4524H19.0343V19.094H13.6896V13.8378ZM15.8108 13.4524V14.5251C15.8108 14.6127 15.8846 14.6867 15.9721 14.6867H16.7511C16.8387 14.6867 16.9124 14.6127 16.9124 14.5251V13.4524H15.8108ZM16.7725 7.6719C16.7725 7.45955 16.9447 7.28671 17.1577 7.28671H18.0727V8.35928C18.0727 8.9011 18.5139 9.34169 19.0551 9.34169H19.8344C20.3757 9.34169 20.8162 8.9011 20.8162 8.35928V7.28671H21.7322C21.9445 7.28671 22.1174 7.45955 22.1174 7.6719V12.6315H16.7725V7.6719ZM18.8938 7.28671V8.35928C18.8938 8.44686 18.9675 8.52079 19.0551 8.52079H19.8344C19.9214 8.52079 19.9954 8.44686 19.9954 8.35928V7.28671H18.8938ZM21.9768 13.4524H23.0784V14.5251C23.0784 14.6127 23.0047 14.6867 22.9174 14.6867H22.1381C22.0506 14.6867 21.9768 14.6127 21.9768 14.5251L21.9768 13.4524ZM25.2003 13.8378C25.2003 13.6254 25.0271 13.4524 24.8147 13.4524H23.8994V14.5251C23.8994 15.067 23.4586 15.5076 22.9173 15.5076H22.1381C21.5968 15.5076 21.1557 15.067 21.1557 14.5251V13.4524H19.8552V19.094H25.2003L25.2003 13.8378ZM26.565 19.094H26.0211V13.8378C26.0211 13.1728 25.4798 12.6315 24.8148 12.6315H22.9381V7.6719C22.9381 7.00698 22.3969 6.46574 21.7322 6.46574H17.1577C16.492 6.46574 15.9514 7.00705 15.9514 7.6719V12.6315H14.0741C13.4094 12.6315 12.8685 13.1728 12.8685 13.8378V19.094H12.3246C11.784 19.094 11.3431 19.534 11.3431 20.0748V20.1284H11.0992C10.8506 20.1284 10.6478 19.9258 10.6478 19.6769V12.5165C10.6478 11.2956 10.0414 10.2453 8.98384 9.63506L6.39836 8.14204C6.33594 8.10602 6.26515 8.08706 6.19308 8.08706C6.12102 8.08706 6.05023 8.10602 5.98781 8.14204C5.92545 8.17816 5.87368 8.23003 5.83769 8.29247C5.8017 8.3549 5.78274 8.42569 5.78273 8.49776V11.0242C5.78278 11.0962 5.80175 11.1669 5.83774 11.2292C5.87374 11.2916 5.92549 11.3433 5.98781 11.3794L7.41308 12.2025C7.56089 12.2872 7.63927 12.423 7.63927 12.5932V17.1308C7.63927 17.3798 7.43682 17.5824 7.18792 17.5824H5.87855L3.06546 7.08587C3.5939 6.9277 3.90502 6.37662 3.76178 5.84066L3.20407 3.75929C3.05787 3.21425 2.49552 2.88909 1.94997 3.03523L1.21382 3.23291C0.950115 3.30357 0.729527 3.47319 0.592528 3.71006C0.455593 3.94764 0.419043 4.2235 0.489505 4.48675L1.04754 6.56812C1.118 6.83137 1.28756 7.05196 1.52495 7.18928C1.68002 7.27946 1.85617 7.32703 2.03556 7.32718C2.1149 7.32718 2.19424 7.3174 2.27262 7.29874L5.15275 18.0472V19.5691C3.84106 19.7679 2.83233 20.903 2.83233 22.2695C2.83233 23.7751 4.0574 24.9999 5.56336 24.9999C6.92969 24.9999 8.06487 23.9913 8.26306 22.68H11.3984C11.5321 23.0631 11.8959 23.3395 12.3245 23.3395H26.565C27.1059 23.3395 27.5458 22.8994 27.5458 22.3587V20.0749C27.5458 19.534 27.1059 19.094 26.565 19.094Z" fill="white"/>
<path fill-rule="evenodd" clip-rule="evenodd" d="M26.7249 22.3586C26.7249 22.445 26.6515 22.5185 26.5649 22.5185H12.3245C12.2372 22.5185 12.1641 22.445 12.1641 22.3586V20.0748C12.1641 19.9877 12.2372 19.915 12.3245 19.915H26.5649C26.6515 19.915 26.7249 19.9877 26.7249 20.0748V22.3586ZM5.97359 19.569V18.4033H7.18779C7.88907 18.4033 8.45997 17.8326 8.45997 17.1309V12.5933C8.45997 12.1336 8.22195 11.7214 7.82356 11.4916L6.60376 10.7872V9.20881L8.57355 10.3461C9.37032 10.8059 9.82662 11.5972 9.82662 12.5166V19.6769C9.82662 20.3785 10.3975 20.9494 11.0991 20.9494H11.3431V21.859H8.26306C8.08527 20.6812 7.15156 19.7475 5.97359 19.569ZM5.56336 24.1789C6.61624 24.1789 7.47324 23.3224 7.47324 22.2694C7.47324 21.2158 6.61624 20.3594 5.56336 20.3594C4.51016 20.3594 3.65316 21.2158 3.65316 22.2694C3.6531 23.3224 4.5101 24.1789 5.56336 24.1789ZM1.93517 6.47829C1.88864 6.45155 1.85455 6.40752 1.84032 6.35577L1.28261 4.27434C1.2758 4.24858 1.27416 4.22173 1.27777 4.19534C1.28138 4.16894 1.29018 4.14352 1.30365 4.12054C1.3168 4.09746 1.33439 4.07721 1.35541 4.06096C1.37643 4.04472 1.40045 4.03279 1.42611 4.02588L2.16226 3.82833C2.17905 3.82396 2.19617 3.82177 2.21297 3.82177C2.30254 3.82177 2.38677 3.88245 2.41084 3.97177L2.96855 6.05314C2.99687 6.15925 2.93136 6.27308 2.82531 6.30159L2.08845 6.49914C2.01915 6.51767 1.96284 6.49361 1.93517 6.47829ZM13.6896 13.8378C13.6896 13.6254 13.8618 13.4524 14.0741 13.4524H14.9901V14.5251C14.9901 15.067 15.4302 15.5076 15.9721 15.5076H16.7511C17.2927 15.5076 17.7335 15.067 17.7335 14.5251V13.4524H19.0343V19.094H13.6896V13.8378ZM15.8108 13.4524V14.5251C15.8108 14.6127 15.8846 14.6867 15.9721 14.6867H16.7511C16.8387 14.6867 16.9124 14.6127 16.9124 14.5251V13.4524H15.8108ZM16.7725 7.6719C16.7725 7.45955 16.9447 7.28671 17.1577 7.28671H18.0727V8.35928C18.0727 8.9011 18.5139 9.34169 19.0551 9.34169H19.8344C20.3757 9.34169 20.8162 8.9011 20.8162 8.35928V7.28671H21.7322C21.9445 7.28671 22.1174 7.45955 22.1174 7.6719V12.6315H16.7725V7.6719ZM18.8938 7.28671V8.35928C18.8938 8.44686 18.9675 8.52079 19.0551 8.52079H19.8344C19.9214 8.52079 19.9954 8.44686 19.9954 8.35928V7.28671H18.8938ZM21.9768 13.4524H23.0784V14.5251C23.0784 14.6127 23.0047 14.6867 22.9174 14.6867H22.1381C22.0506 14.6867 21.9768 14.6127 21.9768 14.5251L21.9768 13.4524ZM25.2003 13.8378C25.2003 13.6254 25.0271 13.4524 24.8147 13.4524H23.8994V14.5251C23.8994 15.067 23.4586 15.5076 22.9173 15.5076H22.1381C21.5968 15.5076 21.1557 15.067 21.1557 14.5251V13.4524H19.8552V19.094H25.2003L25.2003 13.8378ZM26.565 19.094H26.0211V13.8378C26.0211 13.1728 25.4798 12.6315 24.8148 12.6315H22.9381V7.6719C22.9381 7.00698 22.3969 6.46574 21.7322 6.46574H17.1577C16.492 6.46574 15.9514 7.00705 15.9514 7.6719V12.6315H14.0741C13.4094 12.6315 12.8685 13.1728 12.8685 13.8378V19.094H12.3246C11.784 19.094 11.3431 19.534 11.3431 20.0748V20.1284H11.0992C10.8506 20.1284 10.6478 19.9258 10.6478 19.6769V12.5165C10.6478 11.2956 10.0414 10.2453 8.98384 9.63506L6.39836 8.14204C6.33594 8.10602 6.26515 8.08706 6.19308 8.08706C6.12102 8.08706 6.05023 8.10602 5.98781 8.14204C5.92545 8.17816 5.87368 8.23003 5.83769 8.29247C5.8017 8.3549 5.78274 8.42569 5.78273 8.49776V11.0242C5.78278 11.0962 5.80175 11.1669 5.83774 11.2292C5.87374 11.2916 5.92549 11.3433 5.98781 11.3794L7.41308 12.2025C7.56089 12.2872 7.63927 12.423 7.63927 12.5932V17.1308C7.63927 17.3798 7.43682 17.5824 7.18792 17.5824H5.87855L3.06546 7.08587C3.5939 6.9277 3.90502 6.37662 3.76178 5.84066L3.20407 3.75929C3.05787 3.21425 2.49552 2.88909 1.94997 3.03523L1.21382 3.23291C0.950115 3.30357 0.729527 3.47319 0.592528 3.71006C0.455593 3.94764 0.419043 4.2235 0.489505 4.48675L1.04754 6.56812C1.118 6.83137 1.28756 7.05196 1.52495 7.18928C1.68002 7.27946 1.85617 7.32703 2.03556 7.32718C2.1149 7.32718 2.19424 7.3174 2.27262 7.29874L5.15275 18.0472V19.5691C3.84106 19.7679 2.83233 20.903 2.83233 22.2695C2.83233 23.7751 4.0574 24.9999 5.56336 24.9999C6.92969 24.9999 8.06487 23.9913 8.26306 22.68H11.3984C11.5321 23.0631 11.8959 23.3395 12.3245 23.3395H26.565C27.1059 23.3395 27.5458 22.8994 27.5458 22.3587V20.0749C27.5458 19.534 27.1059 19.094 26.565 19.094Z" stroke="white" stroke-width="0.2" mask="url(#path-1-outside-1_88_2109)"/>
</svg>
