<svg width="28" height="28" viewBox="0 0 28 28" fill="none" xmlns="http://www.w3.org/2000/svg">
<path d="M17.5 2.33331H10.5C9.85571 2.33331 9.33337 2.85565 9.33337 3.49998V5.83331C9.33337 6.47764 9.85571 6.99998 10.5 6.99998H17.5C18.1444 6.99998 18.6667 6.47764 18.6667 5.83331V3.49998C18.6667 2.85565 18.1444 2.33331 17.5 2.33331Z" stroke="white" stroke-width="2" stroke-linecap="round" stroke-linejoin="round"/>
<path d="M18.6666 4.66669H21C21.6188 4.66669 22.2123 4.91252 22.6499 5.3501C23.0875 5.78769 23.3333 6.38118 23.3333 7.00002V23.3334C23.3333 23.9522 23.0875 24.5457 22.6499 24.9833C22.2123 25.4209 21.6188 25.6667 21 25.6667H6.99996C6.38112 25.6667 5.78763 25.4209 5.35004 24.9833C4.91246 24.5457 4.66663 23.9522 4.66663 23.3334V7.00002C4.66663 6.38118 4.91246 5.78769 5.35004 5.3501C5.78763 4.91252 6.38112 4.66669 6.99996 4.66669H9.33329" stroke="white" stroke-width="2" stroke-linecap="round" stroke-linejoin="round"/>
<path d="M14 12.8333H18.6667" stroke="white" stroke-width="2" stroke-linecap="round" stroke-linejoin="round"/>
<path d="M14 18.6667H18.6667" stroke="white" stroke-width="2" stroke-linecap="round" stroke-linejoin="round"/>
<path d="M9.33337 12.8333H9.34504" stroke="white" stroke-width="2" stroke-linecap="round" stroke-linejoin="round"/>
<path d="M9.33337 18.6667H9.34504" stroke="white" stroke-width="2" stroke-linecap="round" stroke-linejoin="round"/>
</svg>
