<svg width="28" height="28" viewBox="0 0 28 28" fill="none" xmlns="http://www.w3.org/2000/svg">
<path d="M24.485 11.3021C24.0811 10.88 23.6632 10.445 23.5057 10.0625C23.36 9.71214 23.3514 9.13143 23.3429 8.56893C23.3268 7.52321 23.3096 6.33821 22.4857 5.51429C21.6618 4.69036 20.4768 4.67321 19.4311 4.65714C18.8686 4.64857 18.2879 4.64 17.9375 4.49429C17.5561 4.33679 17.12 3.91893 16.6979 3.515C15.9586 2.80464 15.1186 2 14 2C12.8814 2 12.0425 2.80464 11.3021 3.515C10.88 3.91893 10.445 4.33679 10.0625 4.49429C9.71429 4.64 9.13143 4.64857 8.56893 4.65714C7.52321 4.67321 6.33821 4.69036 5.51429 5.51429C4.69036 6.33821 4.67857 7.52321 4.65714 8.56893C4.64857 9.13143 4.64 9.71214 4.49429 10.0625C4.33679 10.4439 3.91893 10.88 3.515 11.3021C2.80464 12.0425 2 12.8814 2 14C2 15.1186 2.80464 15.9575 3.515 16.6979C3.91893 17.12 4.33679 17.555 4.49429 17.9375C4.64 18.2879 4.64857 18.8686 4.65714 19.4311C4.67321 20.4768 4.69036 21.6618 5.51429 22.4857C6.33821 23.3096 7.52321 23.3268 8.56893 23.3429C9.13143 23.3514 9.71214 23.36 10.0625 23.5057C10.4439 23.6632 10.88 24.0811 11.3021 24.485C12.0414 25.1954 12.8814 26 14 26C15.1186 26 15.9575 25.1954 16.6979 24.485C17.12 24.0811 17.555 23.6632 17.9375 23.5057C18.2879 23.36 18.8686 23.3514 19.4311 23.3429C20.4768 23.3268 21.6618 23.3096 22.4857 22.4857C23.3096 21.6618 23.3268 20.4768 23.3429 19.4311C23.3514 18.8686 23.36 18.2879 23.5057 17.9375C23.6632 17.5561 24.0811 17.12 24.485 16.6979C25.1954 15.9575 26 15.1186 26 14C26 12.8814 25.1954 12.0425 24.485 11.3021ZM23.2475 15.5118C22.7343 16.0475 22.2029 16.6014 21.9211 17.2818C21.6511 17.9354 21.6393 18.6821 21.6286 19.4054C21.6179 20.1554 21.6061 20.9407 21.2729 21.2729C20.9396 21.605 20.1596 21.6179 19.4054 21.6286C18.6821 21.6393 17.9354 21.6511 17.2818 21.9211C16.6014 22.2029 16.0475 22.7343 15.5118 23.2475C14.9761 23.7607 14.4286 24.2857 14 24.2857C13.5714 24.2857 13.0196 23.7586 12.4882 23.2475C11.9568 22.7364 11.3986 22.2029 10.7182 21.9211C10.0646 21.6511 9.31786 21.6393 8.59464 21.6286C7.84464 21.6179 7.05929 21.6061 6.72714 21.2729C6.395 20.9396 6.38214 20.1596 6.37143 19.4054C6.36071 18.6821 6.34893 17.9354 6.07893 17.2818C5.79714 16.6014 5.26571 16.0475 4.7525 15.5118C4.23929 14.9761 3.71429 14.4286 3.71429 14C3.71429 13.5714 4.24143 13.0207 4.7525 12.4882C5.26357 11.9557 5.79714 11.3986 6.07893 10.7182C6.34893 10.0646 6.36071 9.31786 6.37143 8.59464C6.38214 7.84464 6.39393 7.05929 6.72714 6.72714C7.06036 6.395 7.84036 6.38214 8.59464 6.37143C9.31786 6.36071 10.0646 6.34893 10.7182 6.07893C11.3986 5.79714 11.9525 5.26571 12.4882 4.7525C13.0239 4.23929 13.5714 3.71429 14 3.71429C14.4286 3.71429 14.9804 4.24143 15.5118 4.7525C16.0432 5.26357 16.6014 5.79714 17.2818 6.07893C17.9354 6.34893 18.6821 6.36071 19.4054 6.37143C20.1554 6.38214 20.9407 6.39393 21.2729 6.72714C21.605 7.06036 21.6179 7.84036 21.6286 8.59464C21.6393 9.31786 21.6511 10.0646 21.9211 10.7182C22.2029 11.3986 22.7343 11.9525 23.2475 12.4882C23.7607 13.0239 24.2857 13.5714 24.2857 14C24.2857 14.4286 23.7586 14.9793 23.2475 15.5118ZM13.1429 10.5714C13.1429 10.0628 12.992 9.56569 12.7095 9.14282C12.4269 8.71995 12.0253 8.39036 11.5555 8.19574C11.0856 8.00111 10.5686 7.95019 10.0698 8.04941C9.57096 8.14863 9.11277 8.39353 8.75315 8.75315C8.39353 9.11277 8.14863 9.57096 8.04941 10.0698C7.95019 10.5686 8.00111 11.0856 8.19574 11.5555C8.39036 12.0253 8.71995 12.4269 9.14282 12.7095C9.56569 12.992 10.0628 13.1429 10.5714 13.1429C11.2534 13.1429 11.9075 12.8719 12.3897 12.3897C12.8719 11.9075 13.1429 11.2534 13.1429 10.5714ZM9.71429 10.5714C9.71429 10.4019 9.76456 10.2362 9.85874 10.0952C9.95292 9.95427 10.0868 9.84441 10.2434 9.77953C10.4 9.71466 10.5724 9.69768 10.7386 9.73076C10.9049 9.76383 11.0576 9.84546 11.1775 9.96534C11.2974 10.0852 11.379 10.2379 11.4121 10.4042C11.4452 10.5705 11.4282 10.7428 11.3633 10.8994C11.2985 11.0561 11.1886 11.1899 11.0476 11.2841C10.9067 11.3783 10.741 11.4286 10.5714 11.4286C10.3441 11.4286 10.1261 11.3383 9.96534 11.1775C9.80459 11.0168 9.71429 10.7988 9.71429 10.5714ZM17.4286 14.8571C16.92 14.8571 16.4228 15.008 16 15.2905C15.5771 15.5731 15.2475 15.9747 15.0529 16.4445C14.8583 16.9144 14.8073 17.4314 14.9066 17.9302C15.0058 18.429 15.2507 18.8872 15.6103 19.2468C15.9699 19.6065 16.4281 19.8514 16.9269 19.9506C17.4257 20.0498 17.9427 19.9989 18.4126 19.8043C18.8825 19.6096 19.2841 19.2801 19.5666 18.8572C19.8492 18.4343 20 17.9372 20 17.4286C20 16.7466 19.7291 16.0925 19.2468 15.6103C18.7646 15.1281 18.1106 14.8571 17.4286 14.8571ZM17.4286 18.2857C17.259 18.2857 17.0933 18.2354 16.9524 18.1413C16.8114 18.0471 16.7015 17.9132 16.6367 17.7566C16.5718 17.6 16.5548 17.4276 16.5879 17.2614C16.621 17.0951 16.7026 16.9424 16.8225 16.8225C16.9424 16.7026 17.0951 16.621 17.2614 16.5879C17.4276 16.5548 17.6 16.5718 17.7566 16.6367C17.9132 16.7015 18.0471 16.8114 18.1413 16.9524C18.2354 17.0933 18.2857 17.259 18.2857 17.4286C18.2857 17.6559 18.1954 17.8739 18.0347 18.0347C17.8739 18.1954 17.6559 18.2857 17.4286 18.2857ZM18.8921 10.3207L10.3207 18.8921C10.2411 18.9718 10.1465 19.035 10.0425 19.0781C9.93843 19.1212 9.82691 19.1433 9.71429 19.1433C9.60166 19.1433 9.49014 19.1212 9.38609 19.0781C9.28204 19.035 9.18749 18.9718 9.10786 18.8921C9.02822 18.8125 8.96505 18.718 8.92195 18.6139C8.87885 18.5099 8.85667 18.3983 8.85667 18.2857C8.85667 18.1731 8.87885 18.0616 8.92195 17.9575C8.96505 17.8535 9.02822 17.7589 9.10786 17.6793L17.6793 9.10786C17.7589 9.02822 17.8535 8.96505 17.9575 8.92195C18.0616 8.87885 18.1731 8.85667 18.2857 8.85667C18.3983 8.85667 18.5099 8.87885 18.6139 8.92195C18.718 8.96505 18.8125 9.02822 18.8921 9.10786C18.9718 9.18749 19.035 9.28204 19.0781 9.38609C19.1212 9.49014 19.1433 9.60166 19.1433 9.71429C19.1433 9.82691 19.1212 9.93843 19.0781 10.0425C19.035 10.1465 18.9718 10.2411 18.8921 10.3207Z" fill="white"/>
</svg>
