<svg width="52" height="50" viewBox="0 0 52 50" fill="none" xmlns="http://www.w3.org/2000/svg">
<path d="M17.9636 50L13.4727 42.381L4.96364 40.4762L5.79091 31.6667L0 25L5.79091 18.3333L4.96364 9.52381L13.4727 7.61905L17.9636 0L26 3.45238L34.0364 0L38.5273 7.61905L47.0364 9.52381L46.2091 18.3333L52 25L46.2091 31.6667L47.0364 40.4762L38.5273 42.381L34.0364 50L26 46.5476L17.9636 50ZM19.9727 43.9286L26 41.3095L32.1455 43.9286L35.4545 38.2143L41.9545 36.6667L41.3636 30L45.7364 25L41.3636 19.881L41.9545 13.2143L35.4545 11.7857L32.0273 6.07143L26 8.69048L19.8545 6.07143L16.5455 11.7857L10.0455 13.2143L10.6364 19.881L6.26364 25L10.6364 30L10.0455 36.7857L16.5455 38.2143L19.9727 43.9286ZM23.5182 33.4524L36.8727 20L33.5636 16.5476L23.5182 26.6667L18.4364 21.6667L15.1273 25L23.5182 33.4524Z" fill="#0F1C2C"/>
</svg>
