<svg width="28" height="28" viewBox="0 0 28 28" fill="none" xmlns="http://www.w3.org/2000/svg">
<path d="M14 6V22M10 18.2427L11.172 19.1213C12.7333 20.2933 15.2653 20.2933 16.828 19.1213C18.3907 17.9493 18.3907 16.0507 16.828 14.8787C16.048 14.292 15.024 14 14 14C13.0333 14 12.0667 13.7067 11.3293 13.1213C9.85467 11.9493 9.85467 10.0507 11.3293 8.87867C12.804 7.70667 15.196 7.70667 16.6707 8.87867L17.224 9.31867M26 14C26 15.5759 25.6896 17.1363 25.0866 18.5922C24.4835 20.0481 23.5996 21.371 22.4853 22.4853C21.371 23.5996 20.0481 24.4835 18.5922 25.0866C17.1363 25.6896 15.5759 26 14 26C12.4241 26 10.8637 25.6896 9.4078 25.0866C7.95189 24.4835 6.62902 23.5996 5.51472 22.4853C4.40042 21.371 3.5165 20.0481 2.91345 18.5922C2.31039 17.1363 2 15.5759 2 14C2 10.8174 3.26428 7.76516 5.51472 5.51472C7.76516 3.26428 10.8174 2 14 2C17.1826 2 20.2348 3.26428 22.4853 5.51472C24.7357 7.76516 26 10.8174 26 14Z" stroke="white" stroke-width="2" stroke-linecap="round" stroke-linejoin="round"/>
</svg>
