<svg width="42" height="50" viewBox="0 0 42 50" fill="none" xmlns="http://www.w3.org/2000/svg">
<path d="M18.375 50V42.1053H0V36.8421H42V42.1053H23.625V50H18.375ZM13.125 22.3684C13.8688 22.3684 14.4922 22.1162 14.9953 21.6118C15.4984 21.1075 15.75 20.4825 15.75 19.7368C15.75 18.9912 15.4984 18.3662 14.9953 17.8618C14.4922 17.3575 13.8688 17.1053 13.125 17.1053C12.3812 17.1053 11.7578 17.3575 11.2547 17.8618C10.7516 18.3662 10.5 18.9912 10.5 19.7368C10.5 20.4825 10.7516 21.1075 11.2547 21.6118C11.7578 22.1162 12.3812 22.3684 13.125 22.3684ZM28.875 22.3684C29.6187 22.3684 30.2422 22.1162 30.7453 21.6118C31.2484 21.1075 31.5 20.4825 31.5 19.7368C31.5 18.9912 31.2484 18.3662 30.7453 17.8618C30.2422 17.3575 29.6187 17.1053 28.875 17.1053C28.1313 17.1053 27.5078 17.3575 27.0047 17.8618C26.5016 18.3662 26.25 18.9912 26.25 19.7368C26.25 20.4825 26.5016 21.1075 27.0047 21.6118C27.5078 22.1162 28.1313 22.3684 28.875 22.3684ZM2.625 14.7368L6.95625 2.10526C7.175 1.49123 7.53594 0.986842 8.03906 0.592105C8.54219 0.197368 9.1 0 9.7125 0H32.2875C32.9 0 33.4578 0.197368 33.9609 0.592105C34.4641 0.986842 34.825 1.49123 35.0438 2.10526L39.375 14.7368V32.1053C39.375 32.7193 39.1781 33.2237 38.7844 33.6184C38.3906 34.0132 37.8875 34.2105 37.275 34.2105H36.225C35.6125 34.2105 35.1094 34.0132 34.7156 33.6184C34.3219 33.2237 34.125 32.7193 34.125 32.1053V28.9474H7.875V32.1053C7.875 32.7193 7.67812 33.2237 7.28437 33.6184C6.89062 34.0132 6.3875 34.2105 5.775 34.2105H4.725C4.1125 34.2105 3.60938 34.0132 3.21563 33.6184C2.82187 33.2237 2.625 32.7193 2.625 32.1053V14.7368ZM9.58125 10.5263H32.4188L30.5813 5.26316H11.4187L9.58125 10.5263ZM7.875 23.6842H34.125V15.7895H7.875V23.6842Z" fill="#0F1C2C"/>
</svg>
