<svg width="38" height="50" viewBox="0 0 38 50" fill="none" xmlns="http://www.w3.org/2000/svg">
<path d="M10.5556 13.3333L4.22222 7.08333L7.17778 4.16667L13.5111 10.4167L10.5556 13.3333ZM27.4444 13.3333L24.4889 10.4167L30.8222 4.16667L33.7778 7.08333L27.4444 13.3333ZM16.8889 10.4167V0H21.1111V10.4167H16.8889ZM2.11111 50C1.51296 50 1.01157 49.8003 0.606944 49.401C0.202315 49.0017 0 48.5069 0 47.9167V31.25L4.43333 18.75C4.64444 18.125 5.02269 17.6215 5.56806 17.2396C6.11343 16.8576 6.72037 16.6667 7.38889 16.6667H30.6111C31.2796 16.6667 31.8866 16.8576 32.4319 17.2396C32.9773 17.6215 33.3556 18.125 33.5667 18.75L38 31.25V47.9167C38 48.5069 37.7977 49.0017 37.3931 49.401C36.9884 49.8003 36.487 50 35.8889 50H33.7778C33.1796 50 32.6782 49.8003 32.2736 49.401C31.869 49.0017 31.6667 48.5069 31.6667 47.9167V45.8333H6.33333V47.9167C6.33333 48.5069 6.13102 49.0017 5.72639 49.401C5.32176 49.8003 4.82037 50 4.22222 50H2.11111ZM5.91111 27.0833H32.0889L29.8722 20.8333H8.12778L5.91111 27.0833ZM9.5 39.5833C10.3796 39.5833 11.1273 39.2795 11.7431 38.6719C12.3588 38.0642 12.6667 37.3264 12.6667 36.4583C12.6667 35.5903 12.3588 34.8524 11.7431 34.2448C11.1273 33.6371 10.3796 33.3333 9.5 33.3333C8.62037 33.3333 7.87268 33.6371 7.25694 34.2448C6.6412 34.8524 6.33333 35.5903 6.33333 36.4583C6.33333 37.3264 6.6412 38.0642 7.25694 38.6719C7.87268 39.2795 8.62037 39.5833 9.5 39.5833ZM28.5 39.5833C29.3796 39.5833 30.1273 39.2795 30.7431 38.6719C31.3588 38.0642 31.6667 37.3264 31.6667 36.4583C31.6667 35.5903 31.3588 34.8524 30.7431 34.2448C30.1273 33.6371 29.3796 33.3333 28.5 33.3333C27.6204 33.3333 26.8727 33.6371 26.2569 34.2448C25.6412 34.8524 25.3333 35.5903 25.3333 36.4583C25.3333 37.3264 25.6412 38.0642 26.2569 38.6719C26.8727 39.2795 27.6204 39.5833 28.5 39.5833ZM4.22222 41.6667H33.7778V31.25H4.22222V41.6667Z" fill="#0F1C2C"/>
</svg>
