<svg width="70" height="35" viewBox="0 0 70 35" fill="none" xmlns="http://www.w3.org/2000/svg">
<path d="M53.261 1.93522H41.0872C39.8764 1.93522 38.7152 2.41023 37.8591 3.25576C37.003 4.10129 36.522 5.24808 36.522 6.44384C36.522 7.6396 37.003 8.78638 37.8591 9.63191C38.7152 10.4774 39.8764 10.9525 41.0872 10.9525H42.6089V30.4898C42.6089 31.6856 43.0899 32.8324 43.946 33.6779C44.8022 34.5234 45.9633 34.9984 47.1741 34.9984C48.3848 34.9984 49.546 34.5234 50.4022 33.6779C51.2583 32.8324 51.7393 31.6856 51.7393 30.4898V10.9525H53.261C54.4718 10.9525 55.6329 10.4774 56.4891 9.63191C57.3452 8.78638 57.8262 7.6396 57.8262 6.44384C57.8262 5.24808 57.3452 4.10129 56.4891 3.25576C55.6329 2.41023 54.4718 1.93522 53.261 1.93522ZM65.4348 1.93522C64.2241 1.93522 63.0629 2.41023 62.2067 3.25576C61.3506 4.10129 60.8696 5.24808 60.8696 6.44384V30.4898C60.8696 31.6856 61.3506 32.8324 62.2067 33.6779C63.0629 34.5234 64.2241 34.9984 65.4348 34.9984C66.6456 34.9984 67.8067 34.5234 68.6629 33.6779C69.519 32.8324 70 31.6856 70 30.4898V6.44384C70 5.24808 69.519 4.10129 68.6629 3.25576C67.8067 2.41023 66.6456 1.93522 65.4348 1.93522ZM32.5959 0.131766C32.3271 0.0139351 32.0298 -0.0260208 31.7389 0.0165514C31.4479 0.0591235 31.1752 0.182472 30.9525 0.372227L1.85703 25.5303C1.28578 26.0347 0.826054 26.6501 0.506611 27.3379C0.187168 28.0258 0.0148792 28.7714 0.000521946 29.528C-0.0193202 30.9484 0.527261 32.3195 1.52225 33.3453C2.50234 34.3538 3.84139 34.946 5.25587 34.9965C6.67035 35.047 8.0492 34.5518 9.10045 33.6158L24.3177 20.3003V30.4898C24.3177 31.6856 24.7987 32.8324 25.6548 33.6779C26.511 34.5234 27.6722 34.9984 28.8829 34.9984C30.0937 34.9984 31.2549 34.5234 32.111 33.6779C32.9671 32.8324 33.4481 31.6856 33.4481 30.4898V1.51441C33.4545 1.22766 33.3776 0.945104 33.2266 0.700105C33.0756 0.455106 32.8568 0.257897 32.5959 0.131766Z" fill="black"/>
</svg>
