<svg width="10" height="9" viewBox="0 0 10 9" fill="none" xmlns="http://www.w3.org/2000/svg">
<path d="M3.16667 8.75L2.375 7.41667L0.875 7.08333L1.02083 5.54167L0 4.375L1.02083 3.20833L0.875 1.66667L2.375 1.33333L3.16667 0L4.58333 0.604167L6 0L6.79167 1.33333L8.29167 1.66667L8.14583 3.20833L9.16667 4.375L8.14583 5.54167L8.29167 7.08333L6.79167 7.41667L6 8.75L4.58333 8.14583L3.16667 8.75ZM3.52083 7.6875L4.58333 7.22917L5.66667 7.6875L6.25 6.6875L7.39583 6.41667L7.29167 5.25L8.0625 4.375L7.29167 3.47917L7.39583 2.3125L6.25 2.0625L5.64583 1.0625L4.58333 1.52083L3.5 1.0625L2.91667 2.0625L1.77083 2.3125L1.875 3.47917L1.10417 4.375L1.875 5.25L1.77083 6.4375L2.91667 6.6875L3.52083 7.6875ZM4.14583 5.85417L6.5 3.5L5.91667 2.89583L4.14583 4.66667L3.25 3.79167L2.66667 4.375L4.14583 5.85417Z" fill="#4EDEA3"/>
</svg>
